# xmcd
#
# Track frame offsets: 
#        150
#        13265
#        24497
#        37578
#        52190
#        65370
#        78670
#        89879
#        103992
#        123512
#        140261
#        150878
#        169592
#        185614
#        200683
#
# Disc length: 2895 seconds
#
# Revision: 0
# Processed by: cddbd v1.5.2PL0 Copyright (c) Steve Scherf et al.
# Submitted via: ExactAudioCopyFreeDBPlugin 1.0
#
DISCID=cc0b4d0f
DTITLE=เทพมนตรี ลิมปพยอม - บทเพลงวงชาตรี
DYEAR=1994
DGENRE=Country
TTITLE0=จากไปลอนดอน
TTITLE1=แฟนฉัน
TTITLE2=รักครั้งแรก
TTITLE3=ส๊ญญาใจ
TTITLE4=ชะตารัก
TTITLE5=บทเรียนรัก
TTITLE6=รักเพียงเธอ
TTITLE7=หากจะรัก
TTITLE8=พรุ่งนี้เราคงเข้าใจกัน
TTITLE9=เหมือนฝัน
TTITLE10=พลังรัก
TTITLE11=รักอำพราง
TTITLE12=เจ็บเพราะใคร
TTITLE13=ยากยิ่งนัก
TTITLE14=อย่าลืมฉัน
EXTD=
EXTT0=
EXTT1=
EXTT2=
EXTT3=
EXTT4=
EXTT5=
EXTT6=
EXTT7=
EXTT8=
EXTT9=
EXTT10=
EXTT11=
EXTT12=
EXTT13=
EXTT14=
PLAYORDER=
